<mxfile host="app.diagrams.net" agent="Mozilla/5.0 (Windows NT 10.0; Win64; x64) AppleWebKit/537.36 (KHTML, like Gecko) Chrome/129.0.0.0 Safari/537.36" version="24.7.17">
  <diagram name="Page-1" id="ykpEmQPXR-wHbjYEUpFk">
    <mxGraphModel dx="1877" dy="609" grid="1" gridSize="10" guides="1" tooltips="1" connect="1" arrows="1" fold="1" page="1" pageScale="1" pageWidth="827" pageHeight="1169" math="0" shadow="0">
      <root>
        <mxCell id="0" />
        <mxCell id="1" parent="0" />
        <mxCell id="ebvQ4PRXDrvII4Sk1De--1" value="" style="rounded=0;whiteSpace=wrap;html=1;" vertex="1" parent="1">
          <mxGeometry x="260" y="260" width="220" height="310" as="geometry" />
        </mxCell>
        <mxCell id="ebvQ4PRXDrvII4Sk1De--2" value="Interface" style="text;html=1;align=center;verticalAlign=middle;whiteSpace=wrap;rounded=0;" vertex="1" parent="1">
          <mxGeometry x="335" y="260" width="60" height="30" as="geometry" />
        </mxCell>
        <mxCell id="ebvQ4PRXDrvII4Sk1De--4" value="" style="endArrow=none;html=1;rounded=0;exitX=0.002;exitY=0.126;exitDx=0;exitDy=0;exitPerimeter=0;entryX=0.995;entryY=0.105;entryDx=0;entryDy=0;entryPerimeter=0;" edge="1" parent="1" target="ebvQ4PRXDrvII4Sk1De--1">
          <mxGeometry width="50" height="50" relative="1" as="geometry">
            <mxPoint x="260.4200000000001" y="292.05999999999995" as="sourcePoint" />
            <mxPoint x="540" y="350" as="targetPoint" />
          </mxGeometry>
        </mxCell>
        <mxCell id="ebvQ4PRXDrvII4Sk1De--5" value="" style="rounded=1;whiteSpace=wrap;html=1;" vertex="1" parent="1">
          <mxGeometry x="277.5" y="315" width="182.5" height="125" as="geometry" />
        </mxCell>
        <mxCell id="ebvQ4PRXDrvII4Sk1De--6" value="Carte" style="text;html=1;align=center;verticalAlign=middle;whiteSpace=wrap;rounded=0;" vertex="1" parent="1">
          <mxGeometry x="335" y="315" width="60" height="30" as="geometry" />
        </mxCell>
        <mxCell id="ebvQ4PRXDrvII4Sk1De--7" value="" style="endArrow=none;html=1;rounded=0;exitX=0;exitY=0.25;exitDx=0;exitDy=0;entryX=1;entryY=0.25;entryDx=0;entryDy=0;" edge="1" parent="1" target="ebvQ4PRXDrvII4Sk1De--5">
          <mxGeometry width="50" height="50" relative="1" as="geometry">
            <mxPoint x="277.5" y="345" as="sourcePoint" />
            <mxPoint x="452.5" y="345" as="targetPoint" />
          </mxGeometry>
        </mxCell>
        <mxCell id="ebvQ4PRXDrvII4Sk1De--8" value="OSMnx&lt;br&gt;Folium" style="text;html=1;align=right;verticalAlign=middle;whiteSpace=wrap;rounded=0;" vertex="1" parent="1">
          <mxGeometry x="384" y="400" width="60" height="30" as="geometry" />
        </mxCell>
        <mxCell id="ebvQ4PRXDrvII4Sk1De--9" value="API&lt;div&gt;jcdecaux&lt;/div&gt;" style="whiteSpace=wrap;html=1;aspect=fixed;" vertex="1" parent="1">
          <mxGeometry x="-220" y="300" width="80" height="80" as="geometry" />
        </mxCell>
        <mxCell id="ebvQ4PRXDrvII4Sk1De--10" value="" style="endArrow=classic;html=1;rounded=0;exitX=1;exitY=0.5;exitDx=0;exitDy=0;entryX=0;entryY=0.5;entryDx=0;entryDy=0;" edge="1" parent="1" source="ebvQ4PRXDrvII4Sk1De--9" target="ebvQ4PRXDrvII4Sk1De--11">
          <mxGeometry width="50" height="50" relative="1" as="geometry">
            <mxPoint x="150" y="440" as="sourcePoint" />
            <mxPoint x="90" y="350" as="targetPoint" />
          </mxGeometry>
        </mxCell>
        <mxCell id="ebvQ4PRXDrvII4Sk1De--11" value="script&lt;div&gt;recup&lt;/div&gt;&lt;div&gt;données&lt;/div&gt;" style="ellipse;whiteSpace=wrap;html=1;aspect=fixed;" vertex="1" parent="1">
          <mxGeometry x="-70" y="300" width="80" height="80" as="geometry" />
        </mxCell>
        <mxCell id="ebvQ4PRXDrvII4Sk1De--12" value="script&lt;div&gt;carte&lt;/div&gt;&lt;div&gt;interactive&lt;/div&gt;" style="ellipse;whiteSpace=wrap;html=1;aspect=fixed;" vertex="1" parent="1">
          <mxGeometry x="80" y="300" width="80" height="80" as="geometry" />
        </mxCell>
        <mxCell id="ebvQ4PRXDrvII4Sk1De--16" value="" style="rounded=1;whiteSpace=wrap;html=1;" vertex="1" parent="1">
          <mxGeometry x="278" y="450" width="182" height="100" as="geometry" />
        </mxCell>
        <mxCell id="ebvQ4PRXDrvII4Sk1De--17" value="" style="endArrow=classic;html=1;rounded=0;exitX=1;exitY=0.5;exitDx=0;exitDy=0;entryX=0;entryY=0.5;entryDx=0;entryDy=0;" edge="1" parent="1" source="ebvQ4PRXDrvII4Sk1De--11" target="ebvQ4PRXDrvII4Sk1De--12">
          <mxGeometry width="50" height="50" relative="1" as="geometry">
            <mxPoint x="150" y="540" as="sourcePoint" />
            <mxPoint x="200" y="490" as="targetPoint" />
          </mxGeometry>
        </mxCell>
        <mxCell id="ebvQ4PRXDrvII4Sk1De--18" value="" style="endArrow=classic;html=1;rounded=0;exitX=1;exitY=0.5;exitDx=0;exitDy=0;entryX=-0.001;entryY=0.198;entryDx=0;entryDy=0;entryPerimeter=0;" edge="1" parent="1" source="ebvQ4PRXDrvII4Sk1De--12" target="ebvQ4PRXDrvII4Sk1De--5">
          <mxGeometry width="50" height="50" relative="1" as="geometry">
            <mxPoint x="120" y="550" as="sourcePoint" />
            <mxPoint x="170" y="500" as="targetPoint" />
          </mxGeometry>
        </mxCell>
        <mxCell id="ebvQ4PRXDrvII4Sk1De--23" value="Liste des trajets optimisés" style="text;html=1;align=center;verticalAlign=middle;whiteSpace=wrap;rounded=0;" vertex="1" parent="1">
          <mxGeometry x="280" y="450" width="180" height="30" as="geometry" />
        </mxCell>
        <mxCell id="ebvQ4PRXDrvII4Sk1De--24" value="" style="endArrow=none;html=1;rounded=0;entryX=0;entryY=1;entryDx=0;entryDy=0;" edge="1" parent="1" target="ebvQ4PRXDrvII4Sk1De--23">
          <mxGeometry width="50" height="50" relative="1" as="geometry">
            <mxPoint x="460" y="480" as="sourcePoint" />
            <mxPoint x="200" y="490" as="targetPoint" />
          </mxGeometry>
        </mxCell>
        <mxCell id="ebvQ4PRXDrvII4Sk1De--29" value="script&lt;div&gt;greedAlg&lt;/div&gt;" style="ellipse;whiteSpace=wrap;html=1;aspect=fixed;" vertex="1" parent="1">
          <mxGeometry x="80" y="460" width="80" height="80" as="geometry" />
        </mxCell>
        <mxCell id="ebvQ4PRXDrvII4Sk1De--31" value="" style="ellipse;whiteSpace=wrap;html=1;fillColor=none;" vertex="1" parent="1">
          <mxGeometry x="-10" y="440" width="260" height="120" as="geometry" />
        </mxCell>
        <mxCell id="ebvQ4PRXDrvII4Sk1De--32" value="Optimisation" style="text;html=1;align=center;verticalAlign=middle;whiteSpace=wrap;rounded=0;" vertex="1" parent="1">
          <mxGeometry x="25" y="570" width="190" height="10" as="geometry" />
        </mxCell>
        <mxCell id="ebvQ4PRXDrvII4Sk1De--35" value="" style="endArrow=classic;html=1;rounded=0;exitX=1;exitY=0.5;exitDx=0;exitDy=0;entryX=0;entryY=0.5;entryDx=0;entryDy=0;" edge="1" parent="1" source="ebvQ4PRXDrvII4Sk1De--29" target="ebvQ4PRXDrvII4Sk1De--16">
          <mxGeometry width="50" height="50" relative="1" as="geometry">
            <mxPoint x="190" y="610" as="sourcePoint" />
            <mxPoint x="30" y="610" as="targetPoint" />
          </mxGeometry>
        </mxCell>
        <mxCell id="ebvQ4PRXDrvII4Sk1De--36" value="" style="curved=1;endArrow=classic;html=1;rounded=0;entryX=0;entryY=0.5;entryDx=0;entryDy=0;exitX=0.5;exitY=1;exitDx=0;exitDy=0;" edge="1" parent="1" source="ebvQ4PRXDrvII4Sk1De--11" target="ebvQ4PRXDrvII4Sk1De--29">
          <mxGeometry width="50" height="50" relative="1" as="geometry">
            <mxPoint x="-30" y="500" as="sourcePoint" />
            <mxPoint x="20" y="450" as="targetPoint" />
            <Array as="points">
              <mxPoint x="-30" y="500" />
              <mxPoint y="500" />
            </Array>
          </mxGeometry>
        </mxCell>
      </root>
    </mxGraphModel>
  </diagram>
</mxfile>
